<svg height="512" viewBox="0 0 512 512" width="512" xmlns="http://www.w3.org/2000/svg"><path d="m256 349.685-2.3-.685c-2.092-.627-51.808-15.759-102.279-50.941-29.848-20.807-53.676-44.326-70.82-69.9-21.631-32.281-32.601-67.848-32.601-105.718 0-67.514 55.684-122.441 124.129-122.441a123.762 123.762 0 0 1 83.871 32.293 123.766 123.766 0 0 1 83.871-32.293c68.445 0 124.129 54.927 124.129 122.441 0 37.87-10.97 73.437-32.6 105.712-17.145 25.576-40.972 49.1-70.821 69.9-50.479 35.184-100.19 50.316-102.279 50.947z" fill="#ea8668"/><path d="m398 14.281a221.9 221.9 0 0 1 2 29.719c0 121.5-98.5 220-220 220a219.316 219.316 0 0 1 -85.4-17.194c15.353 18.43 34.388 35.606 56.828 51.249 50.472 35.182 100.184 50.314 102.272 50.945l2.3.689 2.3-.689c2.092-.627 51.807-15.759 102.278-50.941 29.849-20.807 53.676-44.326 70.821-69.9 21.631-32.281 32.601-67.848 32.601-105.718 0-46.811-26.774-87.564-66-108.16z" fill="#e57055"/><path d="m228.888 260.563-60.666-95.563a40 40 0 0 1 67.54-42.877l60.665 95.561z" fill="#ffead2"/><path d="m239.878 128.608c.072 1.122.122 2.251.122 3.392a52.017 52.017 0 0 1 -60.12 51.365l49.008 77.2 67.539-42.878z" fill="#fad4b1"/><path d="m284.989 512.009a76.551 76.551 0 0 1 -49.142-17.87l-81.8-68.169a72.531 72.531 0 0 1 -14.706-94.487l133.388-209.37a40 40 0 0 1 67.53 42.887l-49.514 78.182a37.128 37.128 0 0 1 34.655 53.771 37.752 37.752 0 0 1 19.72 3.85 38.154 38.154 0 0 1 19.9 43.815 31.438 31.438 0 0 1 17.817 5.1 31.777 31.777 0 0 1 11.5 39.773l-.121.251-40.329 79.934a76.593 76.593 0 0 1 -53.116 40.712 77.695 77.695 0 0 1 -15.782 1.621z" fill="#ffead2"/><path d="m326.75 156.43-7.527 11.881a8 8 0 0 1 -11.2 2.375l-26.659-17.78a8 8 0 0 1 -2.308-10.953l7.161-11.243a24 24 0 1 1 40.53 25.72z" fill="#fff"/><path d="m382.837 349.713a31.862 31.862 0 0 0 -4.725-2.513 164.065 164.065 0 0 1 -234.541 67.982 72.07 72.07 0 0 0 10.473 10.788l81.8 68.169a76.551 76.551 0 0 0 49.142 17.87 77.695 77.695 0 0 0 15.782-1.626 76.593 76.593 0 0 0 53.116-40.712l40.329-79.934.121-.251a31.777 31.777 0 0 0 -11.497-39.773z" fill="#fad4b1"/><g fill="#f9b775"><path d="m307.97 246.66-54.22 85.19a8 8 0 1 1 -13.5-8.59l50.97-80.09a36.487 36.487 0 0 1 16.75 3.49z"/><path d="m342.82 299.75-36.97 61.25a8 8 0 1 1 -13.7-8.27l33.68-55.8a37.752 37.752 0 0 1 16.99 2.82z"/><path d="m380.29 348.22-26.56 41.39a8 8 0 1 1 -13.46-8.64s25.03-37.44 24.75-36.35a31.326 31.326 0 0 1 15.27 3.6z"/></g><path d="m328.093 133.153a44.023 44.023 0 0 1 -49.375 16.8 7.96 7.96 0 0 0 2.649 2.951l26.659 17.78a8 8 0 0 0 11.2-2.375l7.527-11.881a23.829 23.829 0 0 0 3.16-18.1 24.127 24.127 0 0 0 -1.82-5.175z" fill="#fffced"/><path d="m285.993 216a7.968 7.968 0 0 1 -4.072-1.118l-27-16a8 8 0 0 1 8.158-13.766l27 16a8 8 0 0 1 -4.086 14.884z" fill="#f9b775"/><path d="m250.993 272a7.968 7.968 0 0 1 -4.072-1.118l-27-16a8 8 0 0 1 8.158-13.766l27 16a8 8 0 0 1 -4.086 14.884z" fill="#f9b775"/><circle cx="148" cy="44" fill="#ffd0c2" r="28"/><circle cx="104" cy="96" fill="#ffd0c2" r="16"/><circle cx="160" cy="360" fill="#fffced" r="16"/></svg>