<svg xmlns="http://www.w3.org/2000/svg" data-name="Layer 1" viewBox="0 0 64 64"><circle cx="32" cy="32" r="27" fill="#27aae1"/><path fill="#262234" d="M48.75 53.16a26.94 26.94 0 0 1-33.5 0L16 50.5A9.12 9.12 0 0 1 24.79 44H39.21A9.12 9.12 0 0 1 48 50.5zM46.66 38.56c-3.72-4.25-3.22-8.37-3.22-8.37-1-10.92-11-12.37-11.44-12.43h0c-.44.06-10.48 1.52-11.44 12.43 0 0 .49 4.13-3.22 8.38S31.68 40.42 32 40.38 50.34 42.78 46.66 38.56z"/><path fill="#ffd2b4" d="M32,15.21C43,15.21,42.1,26,42.1,26c1.62-.17,2.9.49,2.9,2.86s-1,2.86-2.26,3a.28.28,0,0,0-.26.27c-.38,3.69-2.9,6.39-5.38,8.2a8.59,8.59,0,0,1-10.19,0c-2.48-1.81-5-4.52-5.38-8.2a.28.28,0,0,0-.26-.27c-1.27-.13-2.26-.63-2.26-3s1.22-3,2.84-2.86C21.84,26,20.94,15.21,32,15.21Z"/><circle cx="28.04" cy="28.15" r="1.7" fill="#262234"/><circle cx="35.96" cy="28.15" r="1.7" fill="#262234"/><path fill="#262234" d="M43.5,22.2C43,15.34,36.87,13,32,13S21,15.34,20.5,22.2a12.09,12.09,0,0,0,.17,3.87A18.47,18.47,0,0,0,21,28.4a.6.6,0,0,0,1.19,0,19.57,19.57,0,0,1,2.47-7.69l.86,2.86a1,1,0,0,0,1,.71H37.58a1,1,0,0,0,1-.71l.85-2.85a19.58,19.58,0,0,1,2.46,7.68.6.6,0,0,0,1.19,0,17,17,0,0,0,.26-2.14A12.89,12.89,0,0,0,43.5,22.2Z"/><path fill="#ffd2b4" d="M36,39v5.76a2,2,0,0,1-1.11,1.8h0a6.46,6.46,0,0,1-5.78,0h0A2,2,0,0,1,28,44.76V39Z"/><path fill="#fff" d="M36,44v.76a2,2,0,0,1-1.11,1.8,6.48,6.48,0,0,1-5.78,0A2,2,0,0,1,28,44.76V44H26v.76a4,4,0,0,0,2.22,3.58,8.39,8.39,0,0,0,7.56,0A4,4,0,0,0,38,44.76V44Z" opacity=".2"/><path fill="#262234" d="M36,41.08v1.5a9.16,9.16,0,0,1-8,0v-1.5a9.16,9.16,0,0,0,8,0Z" opacity=".1"/><path fill="#262234" d="M36,41.08v1.5a9.16,9.16,0,0,1-8,0v-1.5a9.16,9.16,0,0,0,8,0Z" opacity=".1"/><path fill="#fff" d="M43.84,25.88a.6.6,0,0,0-.76.38C43,26.49,41.07,32,32,32s-11-5.47-11.09-5.7a.6.6,0,1,0-1.14.37A9.72,9.72,0,0,0,25.46,32v4.81a7.49,7.49,0,0,1-2.67-1.58.6.6,0,1,0-.9.79c.11.13,2.76,3.06,10.12,3.06S42,36.14,42.12,36a.6.6,0,0,0-.9-.79,7.5,7.5,0,0,1-2.68,1.58V32a9.72,9.72,0,0,0,5.69-5.37A.6.6,0,0,0,43.84,25.88Z"/><path fill="#262234" d="M28 12.3a.63.63 0 0 0 .39-.81v0a4.13 4.13 0 0 1-.31-1.62 4.71 4.71 0 0 1 .46-1.59c.12-.3.26-.61.39-.94a3.94 3.94 0 0 0 .28-1.25A3.36 3.36 0 0 0 29 4.77a3.31 3.31 0 0 0-.27-.58 2.9 2.9 0 0 0-.41-.54.6.6 0 0 0-1 .54l.05.24c0 .07.08.23.1.35a2.52 2.52 0 0 1 .07.38 2.38 2.38 0 0 1 0 .74 3 3 0 0 1-.25.71l-.42.93a7.37 7.37 0 0 0-.37 1.09 4.14 4.14 0 0 0-.11 1.27 3.89 3.89 0 0 0 1 2.22A.64.64 0 0 0 28 12.3zM32.23 11.47a.63.63 0 0 0 .39-.81v0A4.14 4.14 0 0 1 32.29 9a4.73 4.73 0 0 1 .46-1.59c.12-.3.26-.61.39-.94a4 4 0 0 0 .28-1.25 3.35 3.35 0 0 0-.19-1.29A3.3 3.3 0 0 0 33 3.36a2.93 2.93 0 0 0-.41-.54.6.6 0 0 0-1 .54l.05.24c0 .07.08.23.1.35a2.58 2.58 0 0 1 .07.38 2.39 2.39 0 0 1 0 .74 3 3 0 0 1-.25.71l-.42.93a7.41 7.41 0 0 0-.38 1.09 4.12 4.12 0 0 0-.11 1.27 3.88 3.88 0 0 0 1 2.22A.63.63 0 0 0 32.23 11.47zM36.46 12.3a.63.63 0 0 0 .39-.81v0a4.13 4.13 0 0 1-.31-1.62A4.71 4.71 0 0 1 37 8.26c.12-.3.26-.61.39-.94a3.94 3.94 0 0 0 .28-1.25 3.35 3.35 0 0 0-.19-1.29 3.3 3.3 0 0 0-.27-.58 2.9 2.9 0 0 0-.41-.54.6.6 0 0 0-1 .54l.05.24c0 .07.08.23.1.35a2.58 2.58 0 0 1 .07.38 2.4 2.4 0 0 1 0 .74 3.06 3.06 0 0 1-.25.71l-.43.93a7.49 7.49 0 0 0-.37 1.09 4.15 4.15 0 0 0-.11 1.27 3.89 3.89 0 0 0 1 2.22A.64.64 0 0 0 36.46 12.3z"/><path fill="#27aae1" d="M37.85,24.92a1.72,1.72,0,0,0,2.31.76,1.74,1.74,0,0,0,.76-2.31L39.61,20.8a.25.25,0,0,0-.45,0s-1.07,2.08-1.31,2.57A1.7,1.7,0,0,0,37.85,24.92Z"/></svg>